<?xml version="1.0" encoding="UTF-8" standalone="no"?>
<svg width="217px" height="55px" viewBox="0 0 217 55" version="1.1" xmlns="http://www.w3.org/2000/svg" xmlns:xlink="http://www.w3.org/1999/xlink" xmlns:sketch="http://www.bohemiancoding.com/sketch/ns">
    <!-- Generator: Sketch 3.3.3 (12081) - http://www.bohemiancoding.com/sketch -->
    <title>Slice 1</title>
    <desc>Created with Sketch.</desc>
    <defs></defs>
    <g id="Page-1" stroke="none" stroke-width="1" fill="none" fill-rule="evenodd" sketch:type="MSPage">
        <path d="M0,0 L6.02609481,0 L6.02609481,54.0132752 L0,54.0132752 L0,0 L0,0 Z M17.2174137,0 L23.2435086,0 L23.2435086,54.0132752 L17.2174137,54.0132752 L17.2174137,0 L17.2174137,0 Z M8.60870687,0 L11.1913189,0 L11.1913189,54.0132752 L8.60870687,54.0132752 L8.60870687,0 L8.60870687,0 Z M24.1043792,0 L26.6869913,0 L26.6869913,54.0132752 L24.1043792,54.0132752 L24.1043792,0 L24.1043792,0 Z M27.547862,0 L29.2696034,0 L29.2696034,54.0132752 L27.547862,54.0132752 L27.547862,0 L27.547862,0 Z M31.8522154,0 L35.2956982,0 L35.2956982,54.0132752 L31.8522154,54.0132752 L31.8522154,0 L31.8522154,0 Z M30.1304741,0 L30.9913447,0 L30.9913447,54.0132752 L30.1304741,54.0132752 L30.1304741,0 L30.1304741,0 Z M12.9130603,0 L13.773931,0 L13.773931,54.0132752 L12.9130603,54.0132752 L12.9130603,0 L12.9130603,0 Z M14.6348017,0 L15.4956724,0 L15.4956724,54.0132752 L14.6348017,54.0132752 L14.6348017,0 L14.6348017,0 Z M36.1565689,0 L42.1826637,0 L42.1826637,54.0132752 L36.1565689,54.0132752 L36.1565689,0 L36.1565689,0 Z M53.3739826,0 L59.4000774,0 L59.4000774,54.0132752 L53.3739826,54.0132752 L53.3739826,0 L53.3739826,0 Z M44.7652757,0 L47.3478878,0 L47.3478878,54.0132752 L44.7652757,54.0132752 L44.7652757,0 L44.7652757,0 Z M60.2609481,0 L62.8435602,0 L62.8435602,54.0132752 L60.2609481,54.0132752 L60.2609481,0 L60.2609481,0 Z M63.7044309,0 L65.4261722,0 L65.4261722,54.0132752 L63.7044309,54.0132752 L63.7044309,0 L63.7044309,0 Z M68.0087843,0 L71.452267,0 L71.452267,54.0132752 L68.0087843,54.0132752 L68.0087843,0 L68.0087843,0 Z M66.2870429,0 L67.1479136,0 L67.1479136,54.0132752 L66.2870429,54.0132752 L66.2870429,0 L66.2870429,0 Z M49.0696292,0 L49.9304999,0 L49.9304999,54.0132752 L49.0696292,54.0132752 L49.0696292,0 L49.0696292,0 Z M50.7913706,0 L51.6522412,0 L51.6522412,54.0132752 L50.7913706,54.0132752 L50.7913706,0 L50.7913706,0 Z M72.3131377,0 L78.3392325,0 L78.3392325,54.0132752 L72.3131377,54.0132752 L72.3131377,0 L72.3131377,0 Z M89.5305515,0 L95.5566463,0 L95.5566463,54.0132752 L89.5305515,54.0132752 L89.5305515,0 L89.5305515,0 Z M80.9218446,0 L83.5044567,0 L83.5044567,54.0132752 L80.9218446,54.0132752 L80.9218446,0 L80.9218446,0 Z M96.417517,0 L99.000129,0 L99.000129,54.0132752 L96.417517,54.0132752 L96.417517,0 L96.417517,0 Z M99.8609997,0 L101.582741,0 L101.582741,54.0132752 L99.8609997,54.0132752 L99.8609997,0 L99.8609997,0 Z M104.165353,0 L107.608836,0 L107.608836,54.0132752 L104.165353,54.0132752 L104.165353,0 L104.165353,0 Z M102.443612,0 L103.304482,0 L103.304482,54.0132752 L102.443612,54.0132752 L102.443612,0 L102.443612,0 Z M85.226198,0 L86.0870687,0 L86.0870687,54.0132752 L85.226198,54.0132752 L85.226198,0 L85.226198,0 Z M86.9479394,0 L87.8088101,0 L87.8088101,54.0132752 L86.9479394,54.0132752 L86.9479394,0 L86.9479394,0 Z M108.469707,0 L114.495801,0 L114.495801,54.0132752 L108.469707,54.0132752 L108.469707,0 L108.469707,0 Z M125.68712,0 L131.713215,0 L131.713215,54.0132752 L125.68712,54.0132752 L125.68712,0 L125.68712,0 Z M117.078413,0 L119.661026,0 L119.661026,54.0132752 L117.078413,54.0132752 L117.078413,0 L117.078413,0 Z M132.574086,0 L135.156698,0 L135.156698,54.0132752 L132.574086,54.0132752 L132.574086,0 L132.574086,0 Z M136.017569,0 L137.73931,0 L137.73931,54.0132752 L136.017569,54.0132752 L136.017569,0 L136.017569,0 Z M140.321922,0 L143.765405,0 L143.765405,54.0132752 L140.321922,54.0132752 L140.321922,0 L140.321922,0 Z M138.600181,0 L139.461051,0 L139.461051,54.0132752 L138.600181,54.0132752 L138.600181,0 L138.600181,0 Z M121.382767,0 L122.243638,0 L122.243638,54.0132752 L121.382767,54.0132752 L121.382767,0 L121.382767,0 Z M123.104508,0 L123.965379,0 L123.965379,54.0132752 L123.104508,54.0132752 L123.104508,0 L123.104508,0 Z M144.626275,0 L150.65237,0 L150.65237,54.0132752 L144.626275,54.0132752 L144.626275,0 L144.626275,0 Z M161.843689,0 L167.869784,0 L167.869784,54.0132752 L161.843689,54.0132752 L161.843689,0 L161.843689,0 Z M153.234982,0 L155.817594,0 L155.817594,54.0132752 L153.234982,54.0132752 L153.234982,0 L153.234982,0 Z M168.730655,0 L171.313267,0 L171.313267,54.0132752 L168.730655,54.0132752 L168.730655,0 L168.730655,0 Z M172.174137,0 L173.895879,0 L173.895879,54.0132752 L172.174137,54.0132752 L172.174137,0 L172.174137,0 Z M176.478491,0 L179.921974,0 L179.921974,54.0132752 L176.478491,54.0132752 L176.478491,0 L176.478491,0 Z M174.75675,0 L175.61762,0 L175.61762,54.0132752 L174.75675,54.0132752 L174.75675,0 L174.75675,0 Z M157.539336,0 L158.400206,0 L158.400206,54.0132752 L157.539336,54.0132752 L157.539336,0 L157.539336,0 Z M159.261077,0 L160.121948,0 L160.121948,54.0132752 L159.261077,54.0132752 L159.261077,0 L159.261077,0 Z M180.782844,0 L186.808939,0 L186.808939,54.0132752 L180.782844,54.0132752 L180.782844,0 L180.782844,0 Z M198.000258,0 L204.026353,0 L204.026353,54.0132752 L198.000258,54.0132752 L198.000258,0 L198.000258,0 Z M189.391551,0 L191.974163,0 L191.974163,54.0132752 L189.391551,54.0132752 L189.391551,0 L189.391551,0 Z M204.887224,0 L207.469836,0 L207.469836,54.0132752 L204.887224,54.0132752 L204.887224,0 L204.887224,0 Z M208.330706,0 L210.052448,0 L210.052448,54.0132752 L208.330706,54.0132752 L208.330706,0 L208.330706,0 Z M212.63506,0 L216.078543,0 L216.078543,54.0132752 L212.63506,54.0132752 L212.63506,0 L212.63506,0 Z M210.913318,0 L211.774189,0 L211.774189,54.0132752 L210.913318,54.0132752 L210.913318,0 L210.913318,0 Z M193.695905,0 L194.556775,0 L194.556775,54.0132752 L193.695905,54.0132752 L193.695905,0 L193.695905,0 Z M195.417646,0 L196.278517,0 L196.278517,54.0132752 L195.417646,54.0132752 L195.417646,0 L195.417646,0 Z" id="Rectangle-147" fill="#535353" sketch:type="MSShapeGroup"></path>
    </g>
</svg>