<?xml version="1.0" encoding="UTF-8" standalone="no"?>
<svg width="45px" height="44px" viewBox="0 0 45 44" version="1.1" xmlns="http://www.w3.org/2000/svg" xmlns:xlink="http://www.w3.org/1999/xlink" xmlns:sketch="http://www.bohemiancoding.com/sketch/ns">
    <!-- Generator: Sketch 3.3.3 (12081) - http://www.bohemiancoding.com/sketch -->
    <title>Slice 1</title>
    <desc>Created with Sketch.</desc>
    <defs></defs>
    <g id="Page-1" stroke="none" stroke-width="1" fill="none" fill-rule="evenodd" sketch:type="MSPage">
        <path d="M0,0 L6.02609481,0 L6.02609481,5.14412145 L0,5.14412145 L0,0 Z M3.44348275,0.857353575 L6.02609481,0.857353575 L6.02609481,4.28676788 L3.44348275,4.28676788 L3.44348275,0.857353575 Z M7.74783619,0 L10.3304482,0 L10.3304482,5.14412145 L7.74783619,5.14412145 L7.74783619,0 Z M0,5.14412145 L1.72174137,5.14412145 L1.72174137,10.2882429 L0,10.2882429 L0,5.14412145 Z M3.44348275,8.57353575 L10.3304482,8.57353575 L10.3304482,10.2882429 L3.44348275,10.2882429 L3.44348275,8.57353575 Z M5.16522412,6.00147503 L8.60870687,6.00147503 L8.60870687,7.71618218 L5.16522412,7.71618218 L5.16522412,6.00147503 Z" id="Rectangle-50" fill="#545454" sketch:type="MSShapeGroup"></path>
        <path d="M15.3043534,5.14412145 L21.3304482,5.14412145 L21.3304482,10.2882429 L15.3043534,10.2882429 L15.3043534,5.14412145 Z M11,5.14412145 L13.5826121,5.14412145 L13.5826121,10.2882429 L11,10.2882429 L11,5.14412145 Z M18.7478362,0 L21.3304482,0 L21.3304482,5.14412145 L18.7478362,5.14412145 L18.7478362,0 Z M11,0 L17.8869655,0 L17.8869655,1.71470715 L11,1.71470715 L11,0 Z M12.7217414,2.57206073 L16.1652241,2.57206073 L16.1652241,4.28676788 L12.7217414,4.28676788 L12.7217414,2.57206073 Z" id="Rectangle-59" fill="#545454" sketch:type="MSShapeGroup"></path>
        <path d="M0,11 L6.02609481,11 L6.02609481,16.1441215 L0,16.1441215 L0,11 Z M7.74783619,11 L10.3304482,11 L10.3304482,16.1441215 L7.74783619,16.1441215 L7.74783619,11 Z M0,16.1441215 L2.58261206,16.1441215 L2.58261206,21.2882429 L0,21.2882429 L0,16.1441215 Z M3.44348275,19.5735358 L10.3304482,19.5735358 L10.3304482,21.2882429 L3.44348275,21.2882429 L3.44348275,19.5735358 Z M5.16522412,17.001475 L8.60870687,17.001475 L8.60870687,18.7161822 L5.16522412,18.7161822 L5.16522412,17.001475 Z" id="Rectangle-61" fill="#545454" sketch:type="MSShapeGroup"></path>
        <path d="M15.3043534,16.1441215 L21.3304482,16.1441215 L21.3304482,21.2882429 L15.3043534,21.2882429 L15.3043534,16.1441215 Z M11,16.1441215 L13.5826121,16.1441215 L13.5826121,21.2882429 L11,21.2882429 L11,16.1441215 Z M18.7478362,11 L21.3304482,11 L21.3304482,16.1441215 L18.7478362,16.1441215 L18.7478362,11 Z M11,11 L17.8869655,11 L17.8869655,12.7147072 L11,12.7147072 L11,11 Z M12.7217414,13.5720607 L16.1652241,13.5720607 L16.1652241,15.2867679 L12.7217414,15.2867679 L12.7217414,13.5720607 Z" id="Rectangle-60" fill="#545454" sketch:type="MSShapeGroup"></path>
        <path d="M32.3304482,10.2882429 L26.3043534,10.2882429 L26.3043534,5.14412145 L32.3304482,5.14412145 L32.3304482,10.2882429 Z M28.8869655,9.43088933 L26.3043534,9.43088933 L26.3043534,6.00147503 L28.8869655,6.00147503 L28.8869655,9.43088933 Z M24.5826121,10.2882429 L22,10.2882429 L22,5.14412145 L24.5826121,5.14412145 L24.5826121,10.2882429 Z M32.3304482,5.14412145 L30.6087069,5.14412145 L30.6087069,0 L32.3304482,0 L32.3304482,5.14412145 Z M28.8869655,1.71470715 L22,1.71470715 L22,0 L28.8869655,0 L28.8869655,1.71470715 Z M27.1652241,4.28676788 L23.7217414,4.28676788 L23.7217414,2.57206073 L27.1652241,2.57206073 L27.1652241,4.28676788 Z" id="Rectangle-65" fill="#545454" sketch:type="MSShapeGroup"></path>
        <path d="M40.0260948,5.14412145 L34,5.14412145 L34,0 L40.0260948,0 L40.0260948,5.14412145 Z M44.3304482,5.14412145 L41.7478362,5.14412145 L41.7478362,0 L44.3304482,0 L44.3304482,5.14412145 Z M36.5826121,10.2882429 L34,10.2882429 L34,5.14412145 L36.5826121,5.14412145 L36.5826121,10.2882429 Z M44.3304482,10.2882429 L37.4434827,10.2882429 L37.4434827,8.57353575 L44.3304482,8.57353575 L44.3304482,10.2882429 Z M42.6087069,7.71618218 L39.1652241,7.71618218 L39.1652241,6.00147503 L42.6087069,6.00147503 L42.6087069,7.71618218 Z" id="Rectangle-64" fill="#545454" sketch:type="MSShapeGroup"></path>
        <path d="M32.3304482,21.2882429 L26.3043534,21.2882429 L26.3043534,16.1441215 L32.3304482,16.1441215 L32.3304482,21.2882429 Z M32.3304482,21.2882429 L26.3043534,21.2882429 L26.3043534,20.4308893 L32.3304482,20.4308893 L32.3304482,21.2882429 Z M32.3304482,18.7161822 L26.3043534,18.7161822 L26.3043534,17.8588286 L32.3304482,17.8588286 L32.3304482,18.7161822 Z M24.5826121,21.2882429 L22,21.2882429 L22,16.1441215 L24.5826121,16.1441215 L24.5826121,21.2882429 Z M32.3304482,16.1441215 L29.7478362,16.1441215 L29.7478362,11 L32.3304482,11 L32.3304482,16.1441215 Z M28.8869655,12.7147072 L22,12.7147072 L22,11 L28.8869655,11 L28.8869655,12.7147072 Z M27.1652241,15.2867679 L23.7217414,15.2867679 L23.7217414,13.5720607 L27.1652241,13.5720607 L27.1652241,15.2867679 Z" id="Rectangle-63" fill="#545454" sketch:type="MSShapeGroup"></path>
        <path d="M40.0260948,16.1441215 L34,16.1441215 L34,11 L40.0260948,11 L40.0260948,16.1441215 Z M40.0260948,16.1441215 L34,16.1441215 L34,14.4294143 L40.0260948,14.4294143 L40.0260948,16.1441215 Z M40.0260948,13.5720607 L34,13.5720607 L34,11.8573536 L40.0260948,11.8573536 L40.0260948,13.5720607 Z M44.3304482,16.1441215 L41.7478362,16.1441215 L41.7478362,11 L44.3304482,11 L44.3304482,16.1441215 Z M36.5826121,21.2882429 L34,21.2882429 L34,16.1441215 L36.5826121,16.1441215 L36.5826121,21.2882429 Z M44.3304482,21.2882429 L37.4434827,21.2882429 L37.4434827,19.5735358 L44.3304482,19.5735358 L44.3304482,21.2882429 Z M42.6087069,18.7161822 L39.1652241,18.7161822 L39.1652241,17.001475 L42.6087069,17.001475 L42.6087069,18.7161822 Z" id="Rectangle-62" fill="#545454" sketch:type="MSShapeGroup"></path>
        <path d="M10.3304482,22 L4.30435344,22 L4.30435344,27.1441215 L10.3304482,27.1441215 L10.3304482,22 Z M6.8869655,22.8573536 L4.30435344,22.8573536 L4.30435344,26.2867679 L6.8869655,26.2867679 L6.8869655,22.8573536 Z M2.58261206,22 L0,22 L0,27.1441215 L2.58261206,27.1441215 L2.58261206,22 Z M10.3304482,27.1441215 L8.60870687,27.1441215 L8.60870687,32.2882429 L10.3304482,32.2882429 L10.3304482,27.1441215 Z M6.8869655,30.5735358 L0,30.5735358 L0,32.2882429 L6.8869655,32.2882429 L6.8869655,30.5735358 Z M5.16522412,28.001475 L1.72174137,28.001475 L1.72174137,29.7161822 L5.16522412,29.7161822 L5.16522412,28.001475 Z" id="Rectangle-73" fill="#545454" sketch:type="MSShapeGroup"></path>
        <path d="M17.0260948,27.1441215 L11,27.1441215 L11,32.2882429 L17.0260948,32.2882429 L17.0260948,27.1441215 Z M17.0260948,28.001475 L11,28.001475 L11,30.5735358 L17.0260948,30.5735358 L17.0260948,28.001475 Z M21.3304482,27.1441215 L18.7478362,27.1441215 L18.7478362,32.2882429 L21.3304482,32.2882429 L21.3304482,27.1441215 Z M13.5826121,22 L11,22 L11,27.1441215 L13.5826121,27.1441215 L13.5826121,22 Z M21.3304482,22 L14.4434827,22 L14.4434827,23.7147072 L21.3304482,23.7147072 L21.3304482,22 Z M19.6087069,24.5720607 L16.1652241,24.5720607 L16.1652241,26.2867679 L19.6087069,26.2867679 L19.6087069,24.5720607 Z" id="Rectangle-72" fill="#545454" sketch:type="MSShapeGroup"></path>
        <path d="M10.3304482,33 L4.30435344,33 L4.30435344,38.1441215 L10.3304482,38.1441215 L10.3304482,33 Z M2.58261206,33 L0,33 L0,38.1441215 L2.58261206,38.1441215 L2.58261206,33 Z M10.3304482,38.1441215 L7.74783619,38.1441215 L7.74783619,43.2882429 L10.3304482,43.2882429 L10.3304482,38.1441215 Z M6.8869655,41.5735358 L0,41.5735358 L0,43.2882429 L6.8869655,43.2882429 L6.8869655,41.5735358 Z M5.16522412,39.001475 L1.72174137,39.001475 L1.72174137,40.7161822 L5.16522412,40.7161822 L5.16522412,39.001475 Z" id="Rectangle-71" fill="#545454" sketch:type="MSShapeGroup"></path>
        <path d="M17.0260948,38.1441215 L11,38.1441215 L11,43.2882429 L17.0260948,43.2882429 L17.0260948,38.1441215 Z M15.3043534,39.001475 L11,39.001475 L11,42.4308893 L15.3043534,42.4308893 L15.3043534,39.001475 Z M21.3304482,38.1441215 L18.7478362,38.1441215 L18.7478362,43.2882429 L21.3304482,43.2882429 L21.3304482,38.1441215 Z M13.5826121,33 L11,33 L11,38.1441215 L13.5826121,38.1441215 L13.5826121,33 Z M21.3304482,33 L14.4434827,33 L14.4434827,34.7147072 L21.3304482,34.7147072 L21.3304482,33 Z M19.6087069,35.5720607 L16.1652241,35.5720607 L16.1652241,37.2867679 L19.6087069,37.2867679 L19.6087069,35.5720607 Z" id="Rectangle-70" fill="#545454" sketch:type="MSShapeGroup"></path>
        <path d="M22,32.2882429 L28.0260948,32.2882429 L28.0260948,27.1441215 L22,27.1441215 L22,32.2882429 Z M25.4434827,31.4308893 L28.0260948,31.4308893 L28.0260948,28.001475 L25.4434827,28.001475 L25.4434827,31.4308893 Z M29.7478362,32.2882429 L32.3304482,32.2882429 L32.3304482,27.1441215 L29.7478362,27.1441215 L29.7478362,32.2882429 Z M22,27.1441215 L23.7217414,27.1441215 L23.7217414,22 L22,22 L22,27.1441215 Z M25.4434827,23.7147072 L32.3304482,23.7147072 L32.3304482,22 L25.4434827,22 L25.4434827,23.7147072 Z M27.1652241,26.2867679 L30.6087069,26.2867679 L30.6087069,24.5720607 L27.1652241,24.5720607 L27.1652241,26.2867679 Z" id="Rectangle-69" fill="#545454" sketch:type="MSShapeGroup"></path>
        <path d="M38.3043534,27.1441215 L44.3304482,27.1441215 L44.3304482,22 L38.3043534,22 L38.3043534,27.1441215 Z M34,27.1441215 L36.5826121,27.1441215 L36.5826121,22 L34,22 L34,27.1441215 Z M41.7478362,32.2882429 L44.3304482,32.2882429 L44.3304482,27.1441215 L41.7478362,27.1441215 L41.7478362,32.2882429 Z M34,32.2882429 L40.8869655,32.2882429 L40.8869655,30.5735358 L34,30.5735358 L34,32.2882429 Z M35.7217414,29.7161822 L39.1652241,29.7161822 L39.1652241,28.001475 L35.7217414,28.001475 L35.7217414,29.7161822 Z" id="Rectangle-68" fill="#545454" sketch:type="MSShapeGroup"></path>
        <path d="M22,43.2882429 L28.0260948,43.2882429 L28.0260948,38.1441215 L22,38.1441215 L22,43.2882429 Z M29.7478362,43.2882429 L32.3304482,43.2882429 L32.3304482,38.1441215 L29.7478362,38.1441215 L29.7478362,43.2882429 Z M22,38.1441215 L24.5826121,38.1441215 L24.5826121,33 L22,33 L22,38.1441215 Z M25.4434827,34.7147072 L32.3304482,34.7147072 L32.3304482,33 L25.4434827,33 L25.4434827,34.7147072 Z M27.1652241,37.2867679 L30.6087069,37.2867679 L30.6087069,35.5720607 L27.1652241,35.5720607 L27.1652241,37.2867679 Z" id="Rectangle-67" fill="#545454" sketch:type="MSShapeGroup"></path>
        <path d="M38.3043534,38.1441215 L44.3304482,38.1441215 L44.3304482,33 L38.3043534,33 L38.3043534,38.1441215 Z M34,38.1441215 L36.5826121,38.1441215 L36.5826121,33 L34,33 L34,38.1441215 Z M41.7478362,43.2882429 L44.3304482,43.2882429 L44.3304482,38.1441215 L41.7478362,38.1441215 L41.7478362,43.2882429 Z M34,43.2882429 L40.8869655,43.2882429 L40.8869655,41.5735358 L34,41.5735358 L34,43.2882429 Z M35.7217414,40.7161822 L39.1652241,40.7161822 L39.1652241,39.001475 L35.7217414,39.001475 L35.7217414,40.7161822 Z" id="Rectangle-66" fill="#545454" sketch:type="MSShapeGroup"></path>
    </g>
</svg>